<svg height="225pt" preserveAspectRatio="xMidYMid meet" viewBox="0 0 225 225" width="225pt" xmlns="http://www.w3.org/2000/svg"><g transform="matrix(.1 0 0 -.1 0 225)"><path d="m948 1909c-37-21-17-111 51-228 25-42 21-50-21-42-18 4-53 2-78-5-25-6-52-13-60-15-29-8-85-98-89-144-1-21-29-19-74 5-41 22-47 24-47 12 0-9 24-22 78-42 32-12 32-13 32-79 0-36 5-84 11-106s15-60 20-85 14-53 19-62c19-34 11-46-36-53-33-5-48-12-51-25-8-28-67-19-108 16-63 55-81 150-49 261 9 30 14 57 11 59-3 3-8-4-12-15-14-44-35-22-66 69-25 71-72 130-103 129-21 0-21 0-1-8 30-13 52-41 81-106 43-99 56-146 49-179-17-79-17-119 0-162 9-24 23-51 31-59 13-12 8-16-38-30-28-8-59-15-69-15-9 0-24-10-33-22-14-21-16-22-26-6s-13 16-48-3c-20-12-41-25-46-30-6-5-14-9-18-9-14 0-9 130 8 200 15 63 15 73 0 140-9 40-16 107-16 149 0 80 12 111 51 131 16 9 21 7 28-11 5-16 10 5 14 71 4 51 5 96 2 98-12 12-19-13-23-74-4-58-7-65-23-61-11 3-17 2-14-2 2-5-9-20-25-36-17-17-31-43-35-66-4-22-11-39-16-39-6 0-8-4-5-9s8-26 11-47c3-22 8-50 11-64 12-54 12-60 2-60-6 0-4-8 5-18 17-18 23-76 11-106-3-9-16-16-28-16-19-1-20-2-4-14 14-10 16-23 11-72-3-37-11-64-22-72-14-11-13-13 7-19 31-8 14-26-43-48-25-9-45-20-45-24s-16-13-35-21c-22-9-35-20-35-32 0-21-20-24-38-6-7 7-12 8-12 2 0-14 22-34 37-34 7 0 15 10 18 23 5 17 29 35 90 65 46 23 86 42 90 42 3 0 29 16 57 35l52 35 22-21 22-21 14 28c11 23 23 30 77 40 35 8 85 11 110 9 29-3 48 0 53 8 6 9 12 7 24-8 16-21 19-20 49 30 12 20 48 23 370 32 258 6 295 2 295-32 0-8 5-15 10-15 6 0 10 6 10 14 0 15 10 14 130-12 41-9 104-17 140-18 57-2 99-8 108-14 1-2 6-3 11-4 5 0 21-14 37-29 25-25 33-28 70-22 39 5 57-1 195-69 84-42 155-73 158-69 3 3 2 8-4 10-5 2-57 27-115 56-97 49-133 77-96 77 17 0 22 15 7 24-10 7-3 44 10 52 5 3 7-3 4-13s1-5 9 12c7 16 12 35 9 42s1 13 8 13 9 3 5 7c-3 4 6 12 21 19 19 8 22 13 11 13-20 1-26 41-7 41 6 0 9 6 6 14s-1 32 5 53c12 45 17 242 5 246-4 1-9 37-11 80-3 61-8 82-23 92-24 19-35 14-45-21-10-36 7-72 38-80 20-5 22-14 28-108 7-99-4-215-24-261-5-11-14-38-21-59-6-22-26-66-44-100l-33-60-64-1h-63l36 71c38 77 93 223 86 230-2 3-10-10-17-28-52-129-115-248-133-248-4 0-17 8-27 18-20 18-19 19 16 57 66 72 75 91 78 157 2 37 12 82 24 109 37 80 63 151 58 157-3 3-9-4-12-14-8-21-38-92-61-141-8-18-19-33-24-33-12 0-37 52-32 66 2 6-5 14-17 17-27 7-26 38 4 86 14 21 22 42 19 45s2 16 13 28l19 22-32-22c-37-26-69-65-79-94-6-20-6-20-27 0-50 46-151 52-194 12-21-19-21-19-37 14-9 19-16 39-16 46 0 6-12 29-27 51-21 30-40 43-77 54-63 19-80 19-118-1-18-9-43-20-57-24s-34-11-44-15c-16-7-17-4-11 21 11 45 33 84 49 84 7 0 24 17 36 39 18 32 28 40 61 44 22 3 41 7 44 9 8 9-9 77-22 82-23 9-77-16-103-47-13-16-30-34-36-41-7-6-19-25-28-41-18-35-23-27-31 54-6 63-34 99-101 131-46 22-71 25-97 9zm92-29c64-33 91-84 97-185 6-94-10-121-22-36-8 56-36 114-79 162-48 54-40 18 14-63 27-41 53-90 57-108l6-34-42 34c-65 53-142 196-127 235 8 21 50 19 96-5zm273-79c-3-11-12-21-21-24-10-3-26-8-37-12-18-7-17-5 4 18 13 15 28 24 32 21 5-3 9 0 9 5 0 6 4 11 9 11s7-9 4-19zm37-17c0-8-4-12-10-9-5 3-10 10-10 16 0 5 5 9 10 9 6 0 10-7 10-16zm750-189c0-19-18-38-29-31-6 4-11 20-11 37 0 27 2 28 20 17 11-7 20-17 20-23zm-681-80c18-17 25-36 27-77 3-51 3-52-7-18-24 76-33 92-68 111-35 20-35 20-6 14 17-3 41-17 54-30zm381-175c0-5-5-10-11-10-5 0-7 5-4 10 3 6 8 10 11 10 2 0 4-4 4-10z"/><path d="m2016 1585c-3-9-6-22-5-28 0-7 5-1 10 12s8 26 5 28c-2 2-6-3-10-12z"/><path d="m1991 1494c0-11 3-14 6-6 3 7 2 16-1 19-3 4-6-2-5-13z"/><path d="m340 1481-25-7 22-8c24-8 43-1 43 15 0 10-4 10-40 0z"/><path d="m572 1444c-14-13-20-28-16-38 11-29 32-17 36 22 3 20 5 37 4 38-1 0-11-10-24-22z"/><path d="m1236 925c-11-8-16-15-10-15 5 0 18 7 28 15 11 8 16 15 10 15-5 0-18-7-28-15z"/><path d="m718 903c7-3 16-2 19 1 4 3-2 6-13 5-11 0-14-3-6-6z"/><path d="m1390 895c0-5 5-17 10-25s10-10 10-5c0 6-5 17-10 25s-10 11-10 5z"/><path d="m1641 860c0-8 4-22 9-30 12-18 12-2 0 25-6 13-9 15-9 5z"/><path d="m605 840c-3-6 1-7 9-4 18 7 21 14 7 14-6 0-13-4-16-10z"/><path d="m396 782c-3-5 1-9 9-9s12 4 9 9c-3 4-7 8-9 8s-6-4-9-8z"/><path d="m1771 774c0-11 3-14 6-6 3 7 2 16-1 19-3 4-6-2-5-13z"/><path d="m622 755c0-16 2-22 5-12 2 9 2 23 0 30-3 6-5-1-5-18z"/><path d="m1298 773c6-2 18-2 25 0 6 3 1 5-13 5s-19-2-12-5z"/><path d="m1641 744c0-11 3-14 6-6 3 7 2 16-1 19-3 4-6-2-5-13z"/><path d="m280 730c0-5 5-10 11-10 5 0 7 5 4 10-3 6-8 10-11 10-2 0-4-4-4-10z"/><path d="m760 726c0-2 7-7 16-10 8-3 12-2 9 4-6 10-25 14-25 6z"/><path d="m93 703c0-8 6-9 19-2 10 5 18 11 18 12 0 2-8 3-18 3s-19-6-19-13z"/><path d="m635 701c-3-5-2-12 3-15s9 1 9 9c0 17-3 19-12 6z"/><path d="m216 657c3-10 9-15 12-12s0 11-7 18c-10 9-11 8-5-6z"/><path d="m917 640c-10-25-17-30-47-30-19 0-42-5-50-10-12-8-12-10 5-10 59 0 95 13 101 36 6 25 20 32 26 13 2-6 32-14 66-16 52-4 62-2 62 11 0 20 24 21 40 1 16-19 29-19 52 2 17 15 18 15 18-4 0-18 8-21 82-26 46-3 85-4 87-1 11 10-12 15-78 15-63 0-71 3-71 19 0 28-16 33-45 14-21-14-28-14-41-3-23 19-54 22-54 5 0-8-6-16-14-19-22-9-84 4-97 19-18 21-30 17-42-16z"/><path d="m300 649c0-5 5-7 10-4 6 3 10 8 10 11 0 2-4 4-10 4-5 0-10-5-10-11z"/><path d="m440 649c0-5 5-7 10-4 6 3 10 8 10 11 0 2-4 4-10 4-5 0-10-5-10-11z"/><path d="m2212 620c0-14 2-19 5-12 2 6 2 18 0 25-3 6-5 1-5-13z"/><path d="m2020 620c0-5 5-10 11-10 5 0 7 5 4 10-3 6-8 10-11 10-2 0-4-4-4-10z"/><path d="m1380 610c0-9 89-23 160-24 28-1 51-7 60-17 8-9 49-27 90-40 51-16 83-32 102-53l27-29-54-51c-47-44-53-55-47-76 7-24 7-24 10 7 3 26 9 34 35 42 89 28 162 2 112-39-9-7-13-15-11-18 3-2 12 3 21 12s21 16 27 16 8-3 5-7c-4-3 3-11 15-17s24-18 26-26c4-11 0-10-16 4-11 10-27 16-34 13-11-4-11-6 0-6 16-1 36-20 45-41 4-12 6-12 6 2 1 11 6 15 15 12s17 3 22 18c12 39 51 91 59 78 4-7 2-17-4-23-19-19-12-33 22-42 28-9 34-17 47-62 8-29 17-53 21-53 8 0 49 76 49 91-1 8-7 0-14-17-20-46-33-48-39-8-7 39-32 74-54 74-9 0-12 8-8 22 9 37-8 54-40 40-29-13-30-13-95 36-34 27-44 40-42 58 2 13-1 24-7 24s-11-4-11-8c0-9-44-32-59-32-5 0-11 9-14 19-3 14-22 25-63 37-33 9-63 20-69 24-5 4-25 11-42 15-18 3-33 13-33 20 0 10-13 14-42 13-40 0-120 8-160 16-10 2-18 0-18-4z"/><path d="m760 590c-19-4-71-17-115-29-44-11-88-21-97-21-18 0-68-41-68-57 0-5-21-15-47-21-26-7-69-24-96-38-27-13-56-24-64-24-12 0-13-3-4-14 10-12 8-16-11-21-13-4-33-16-45-27-12-12-27-17-34-13-8 6-10 4-4-4 4-7-2-22-14-35-11-12-22-31-24-41-2-11-9-31-16-43-7-13-10-26-7-29s29-7 58-9c51-3 52-3 11 5-24 4-45 9-47 12-9 9 47 119 60 119 7 0 18-16 25-35s15-35 19-35c3 0 16 18 30 40 13 22 30 40 37 40 17 0 17-16-1-23-14-6-29-47-16-47 4 0 10 10 14 22 5 21 6 21 18 6 12-16 15-16 38 3 24 20 24 20 1 9-17-9-26-9-34-1s-8 11 2 11c7 0 9 5 5 11-4 8 1 9 17 4 20-6 22-5 12 6-14 14-18 59-5 59 4 0 13-5 18-10 7-7 26-5 57 6 38 13 51 14 62 4 28-23 15 1-20 38-32 34-33 37-14 40 11 2 24 14 29 28 5 13 16 24 24 24 7 0 16 6 19 14s29 17 59 22c29 4 55 8 58 9 3 0 10 3 15 7 6 3 38 12 73 19 34 7 62 17 62 21s-1 7-2 7c-2-1-19-5-38-9z"/><path d="m2066 562c-7-12 12-38 21-28 4 5 2 11-5 13-6 3-10 9-6 14 3 5 3 9 0 9s-7-4-10-8z"/><path d="m2217 349c-16-27-26-49-23-49 7 0 59 90 54 95-2 2-16-18-31-46z"/><path d="m0 366c0-12 89-164 101-172 15-9 10 13-6 26-8 6-17 21-21 33-3 11-11 25-16 31s-20 29-33 51c-14 22-25 36-25 31z"/><path d="m516 333c-6-14-5-15 5-6 7 7 10 15 7 18s-9-2-12-12z"/><path d="m1880 290c0-6 7-10 15-10s15 2 15 4-7 6-15 10c-8 3-15 1-15-4z"/><path d="m460 269c-22-18-22-19-3-10 12 6 25 16 28 21 9 15 3 12-25-11z"/><path d="m1740 270c6-11 15-20 20-20 6 0 2 9-7 20-10 11-19 20-21 20-1 0 2-9 8-20z"/><path d="m356 205c-11-8-16-15-10-15 5 0 18 7 28 15 11 8 16 15 10 15-5 0-18-7-28-15z"/><path d="m1830 205c14-8 32-14 40-14s0 6-19 14c-42 19-54 19-21 0z"/><path d="m260 180c-34-7-34-7-5-8 17 0 39 3 50 8 24 10 4 10-45 0z"/><path d="m1940 174c51-17 153-15 172 4 10 10 5 10-21 1-30-11-100-8-171 6-14 3-5-2 20-11z"/></g></svg>